<?xml version="1.0" encoding="utf-8"?>
<!-- Generator: Adobe Illustrator 22.0.1, SVG Export Plug-In . SVG Version: 6.00 Build 0)  -->
<svg version="1.1" id="Layer_1" xmlns="http://www.w3.org/2000/svg" xmlns:xlink="http://www.w3.org/1999/xlink" x="0px" y="0px"
	 viewBox="0 0 1440 904" style="enable-background:new 0 0 1440 904;" xml:space="preserve">
<style type="text/css">
	.st0{fill:#435068;}
</style>
<title>contact form L floating stuff</title>
<desc>Created with Sketch.</desc>
<g id="layer-1" transform="translate(77.000000, 99.000000)">
	<path class="st0" d="M88.9,176.7l-0.4,0.4c-1.9,1.9-4.5,3-7.3,3s-5.3-1.1-7.3-3c-1.9-1.9-3-4.5-3-7.3c0-2.8,1.1-5.3,3-7.3l0.4-0.4
		l-3.8-3.8l-0.4,0.4c-3,3-4.6,6.9-4.6,11.1c0,4.2,1.6,8.2,4.6,11.1c3,3,6.9,4.6,11.1,4.6s8.2-1.6,11.1-4.6l0.4-0.4L88.9,176.7z"/>
	<path class="st0" d="M959.4,565.7c-2.1-2.1-4.9-3.2-7.8-3.2c-3,0-5.7,1.1-7.8,3.2c-2.1,2.1-3.2,4.9-3.2,7.8c0,3,1.1,5.7,3.2,7.8
		l0.4,0.4l2.9-2.9l-0.4-0.4c-1.3-1.3-2-3.1-2-4.9c0-1.9,0.7-3.6,2-4.9c1.3-1.3,3.1-2,4.9-2c1.9,0,3.6,0.7,4.9,2l0.4,0.4l2.9-2.9
		L959.4,565.7z"/>
	<path class="st0" d="M1173,86c-3.9,0-7-3.1-7-7s3.1-7,7-7s7,3.1,7,7S1176.9,86,1173,86z M1173,75c-2.2,0-4,1.8-4,4s1.8,4,4,4
		s4-1.8,4-4S1175.2,75,1173,75z"/>
	<path id="dot-big" class="st0" d="M143,630c0,3.3-2.7,6-6,6c-3.3,0-6-2.7-6-6c0-3.3,2.7-6,6-6C140.3,624,143,626.7,143,630"/>
	<path id="dot-small" class="st0" d="M346,72c0,2.2-1.8,4-4,4c-2.2,0-4-1.8-4-4c0-2.2,1.8-4,4-4C344.2,68,346,69.8,346,72"/>
</g>
</svg>
